<svg width="158" height="31" viewBox="0 0 158 31" fill="none" xmlns="http://www.w3.org/2000/svg">
<g clip-path="url(#clip0_561_846)">
<path d="M6.4622 30.5858V13.9272H0V10.8245H16.27V13.9272H9.80785V30.5858H6.46615H6.4622Z" fill="white"/>
<path d="M23.0799 31.0001C21.5631 31.0001 20.2319 30.6757 19.0864 30.027C17.9409 29.3783 17.0443 28.4757 16.4044 27.3229C15.7605 26.1701 15.4406 24.8454 15.4406 23.3448C15.4406 21.727 15.7566 20.3202 16.3846 19.1245C17.0127 17.9326 17.8856 17.0026 19.0074 16.3461C20.1253 15.6857 21.4209 15.3574 22.8903 15.3574C24.4426 15.3574 25.7619 15.7169 26.8482 16.436C27.9344 17.155 28.7402 18.1671 29.2695 19.4762C29.7949 20.7853 29.9963 22.3249 29.866 24.099H26.5519V22.8915C26.544 21.2815 26.2557 20.1053 25.6908 19.3668C25.126 18.6243 24.2372 18.257 23.0285 18.257C21.6618 18.257 20.6427 18.6751 19.9791 19.5113C19.3116 20.3476 18.9798 21.5707 18.9798 23.1807C18.9798 24.6813 19.3116 25.8419 19.9791 26.6664C20.6467 27.4909 21.6144 27.9012 22.8903 27.9012C23.7119 27.9012 24.4229 27.7215 25.0193 27.3581C25.6158 26.9985 26.074 26.4749 26.3979 25.7871L29.7001 26.7758C29.1273 28.1122 28.2425 29.1478 27.0457 29.8903C25.8488 30.6327 24.5295 31.0001 23.0878 31.0001H23.0799ZM17.9212 24.0951V21.5981H28.2267V24.0951H17.9212Z" fill="white"/>
<path d="M39.4724 31.0001C37.928 31.0001 36.6087 30.6601 35.5185 29.9762C34.4283 29.2963 33.5909 28.3623 33.0142 27.1822C32.4375 26.0021 32.1412 24.6656 32.1333 23.1768C32.1412 21.6567 32.4454 20.3124 33.0418 19.1362C33.6383 17.96 34.4875 17.0377 35.5856 16.3656C36.6877 15.6935 37.9951 15.3574 39.5119 15.3574C41.2144 15.3574 42.6522 15.7795 43.8332 16.6274C45.0103 17.4754 45.7806 18.6282 46.144 20.0936L42.8141 20.9845C42.5534 20.1874 42.1268 19.57 41.5225 19.1245C40.9221 18.679 40.2387 18.4602 39.4685 18.4602C38.5995 18.4602 37.8806 18.6634 37.3197 19.0698C36.7548 19.4762 36.3401 20.0389 36.0715 20.7501C35.8029 21.4652 35.6686 22.2741 35.6686 23.1768C35.6686 24.5875 35.9885 25.7246 36.6245 26.5921C37.2644 27.4597 38.2084 27.8973 39.4685 27.8973C40.3572 27.8973 41.0564 27.698 41.5699 27.2955C42.0834 26.893 42.4705 26.3108 42.7272 25.5527L46.14 26.3069C45.6779 27.8153 44.8681 28.9759 43.7147 29.7848C42.5574 30.5936 41.1433 31.0001 39.4724 31.0001Z" fill="white"/>
<path d="M47.2657 18.3624V15.7677H57.7095V18.3624H47.2657ZM57.7095 30.5858C56.7181 30.7694 55.7503 30.8476 54.8023 30.8241C53.8543 30.8007 53.0051 30.6288 52.2585 30.3044C51.508 29.9801 50.9392 29.4643 50.5521 28.7609C50.2085 28.12 50.0307 27.4674 50.011 26.7992C49.9912 26.131 49.9833 25.3768 49.9833 24.5366V11.6528H53.3132V24.3451C53.3132 24.9391 53.3211 25.4627 53.3329 25.9082C53.3487 26.3576 53.4396 26.721 53.6173 27.0063C53.9491 27.5534 54.4824 27.8621 55.2131 27.9246C55.9439 27.9871 56.7773 27.952 57.7095 27.8152V30.5858Z" fill="white"/>
<path d="M66.7945 31.0001C65.2975 31.0001 63.9861 30.6679 62.8682 29.9997C61.7504 29.3315 60.8814 28.4092 60.2691 27.233C59.6529 26.0568 59.3488 24.7047 59.3488 23.1768C59.3488 21.6489 59.6648 20.2577 60.2928 19.0893C60.9209 17.917 61.7938 17.0026 62.9156 16.3461C64.0335 15.6857 65.3291 15.3574 66.7985 15.3574C68.2679 15.3574 69.6188 15.6896 70.7366 16.3578C71.8545 17.026 72.7235 17.9482 73.3436 19.1245C73.9638 20.3007 74.2719 21.6528 74.2719 23.1807C74.2719 24.7086 73.9598 26.0724 73.3357 27.2486C72.7116 28.4249 71.8387 29.3432 70.7208 30.0075C69.603 30.6718 68.2955 31.004 66.7945 31.004V31.0001ZM66.7945 27.8973C68.1257 27.8973 69.1171 27.4597 69.761 26.5804C70.4088 25.7012 70.7327 24.5679 70.7327 23.1768C70.7327 21.7856 70.4048 20.5938 69.7491 19.738C69.0934 18.8822 68.1059 18.4562 66.7945 18.4562C65.8979 18.4562 65.1592 18.6555 64.5825 19.0541C64.0058 19.4527 63.5753 20.0037 63.2988 20.7149C63.0223 21.4222 62.884 22.2467 62.884 23.1768C62.884 24.6148 63.2158 25.7598 63.8755 26.6156C64.5351 27.4714 65.5108 27.8973 66.7945 27.8973Z" fill="white"/>
<path d="M77.2936 30.5858V15.7677H80.2758V20.3632H80.6787V30.5858H77.2936ZM87.6821 30.5858V23.4503C87.6821 22.9853 87.6505 22.4656 87.5833 21.899C87.5201 21.3323 87.37 20.7853 87.133 20.2577C86.896 19.7302 86.5445 19.3003 86.0784 18.9604C85.6123 18.6204 84.9803 18.4523 84.1863 18.4523C83.7597 18.4523 83.341 18.5227 82.9223 18.6595C82.5076 18.7962 82.1284 19.0307 81.7926 19.3668C81.4569 19.7028 81.1843 20.16 80.9829 20.7384C80.7775 21.3206 80.6787 22.0631 80.6787 22.9697L78.6958 22.1334C78.6958 20.8712 78.9447 19.7263 79.4384 18.7024C79.9322 17.6786 80.6629 16.8619 81.6228 16.2523C82.5826 15.6427 83.7676 15.3418 85.1738 15.3418C86.2838 15.3418 87.2002 15.5255 87.9191 15.8889C88.6419 16.2562 89.2147 16.7212 89.6373 17.2878C90.0639 17.8545 90.376 18.4602 90.5814 19.0971C90.7828 19.738 90.9171 20.3437 90.9764 20.9142C91.0356 21.4847 91.0672 21.9498 91.0672 22.3054V30.578H87.6821V30.5858Z" fill="white"/>
<path d="M94.9501 13.5168V10.4844H98.2918V13.5168H94.9501ZM94.9501 30.5857V15.7676H98.2918V30.5857H94.9501Z" fill="white"/>
<path d="M108.961 31.0001C107.416 31.0001 106.097 30.6601 105.007 29.9762C103.917 29.2963 103.079 28.3623 102.503 27.1822C101.926 26.0021 101.63 24.6656 101.622 23.1768C101.63 21.6567 101.934 20.3124 102.53 19.1362C103.127 17.96 103.976 17.0377 105.074 16.3656C106.176 15.6935 107.484 15.3574 109 15.3574C110.703 15.3574 112.141 15.7795 113.322 16.6274C114.499 17.4754 115.269 18.6282 115.632 20.0936L112.303 20.9845C112.042 20.1874 111.615 19.57 111.011 19.1245C110.41 18.679 109.727 18.4602 108.957 18.4602C108.088 18.4602 107.369 18.6634 106.808 19.0698C106.243 19.4762 105.828 20.0389 105.56 20.7501C105.291 21.4652 105.157 22.2741 105.157 23.1768C105.157 24.5875 105.477 25.7246 106.113 26.5921C106.753 27.4597 107.697 27.8973 108.957 27.8973C109.846 27.8973 110.545 27.698 111.058 27.2955C111.572 26.893 111.959 26.3108 112.216 25.5527L115.628 26.3069C115.166 27.8153 114.357 28.9759 113.203 29.7848C112.046 30.5936 110.632 31.0001 108.961 31.0001Z" fill="white"/>
<path d="M122.371 31.0001C121.289 31.0001 120.372 30.7968 119.626 30.3904C118.875 29.984 118.31 29.4409 117.927 28.7648C117.544 28.0888 117.351 27.3424 117.351 26.5296C117.351 25.8145 117.469 25.1736 117.71 24.6031C117.951 24.0326 118.318 23.5363 118.82 23.1221C119.318 22.7079 119.965 22.364 120.763 22.0982C121.364 21.9068 122.071 21.7309 122.877 21.5785C123.686 21.4222 124.563 21.2776 125.511 21.1448C126.459 21.0119 127.451 20.8673 128.486 20.711L127.293 21.3831C127.301 20.3593 127.072 19.6051 126.598 19.1206C126.127 18.636 125.33 18.3937 124.212 18.3937C123.536 18.3937 122.885 18.55 122.256 18.8587C121.628 19.1714 121.19 19.7067 120.937 20.4648L117.888 19.5191C118.259 18.2648 118.962 17.2605 120.001 16.5024C121.04 15.7443 122.446 15.3652 124.212 15.3652C125.543 15.3652 126.716 15.5802 127.727 16.01C128.738 16.4399 129.489 17.1433 129.983 18.1241C130.251 18.6438 130.413 19.1792 130.469 19.7224C130.524 20.2655 130.551 20.8595 130.551 21.5004V30.5976H127.625V27.3854L128.11 27.9051C127.435 28.9758 126.649 29.7613 125.744 30.2576C124.844 30.7578 123.718 31.004 122.367 31.004L122.371 31.0001ZM123.039 28.3623C123.797 28.3623 124.445 28.2295 124.982 27.9637C125.519 27.698 125.946 27.3737 126.266 26.9907C126.586 26.6078 126.799 26.2443 126.91 25.9083C127.083 25.4862 127.186 25.0056 127.21 24.4624C127.233 23.9192 127.245 23.4777 127.245 23.1377L128.272 23.4386C127.265 23.5949 126.4 23.7317 125.677 23.8489C124.954 23.9661 124.338 24.0795 123.817 24.185C123.299 24.2905 122.841 24.4077 122.442 24.5367C122.055 24.6734 121.727 24.8337 121.459 25.0173C121.19 25.201 120.985 25.412 120.842 25.6504C120.7 25.8887 120.629 26.1662 120.629 26.4866C120.629 26.854 120.72 27.1744 120.906 27.4557C121.091 27.7332 121.36 27.9559 121.715 28.1201C122.071 28.2842 122.513 28.3662 123.039 28.3662V28.3623Z" fill="white"/>
<path d="M136.153 0V21.6136H158V0H136.153ZM145.814 13.3097L145.206 11.2894H142.275L141.667 13.3097H139.842L142.741 4.35321H144.748L147.635 13.3097H145.814ZM154.275 5.95928H152.304V11.4106C152.304 11.5161 152.288 11.6138 152.257 11.7036H154.275V13.3097H148.579V11.7036H150.542V6.25236C150.542 6.14685 150.558 6.04916 150.59 5.95928H148.575V4.35321H154.271V5.95928H154.275ZM143.737 6.24846L143.397 7.56145L142.729 9.77713H144.748L144.084 7.56927L143.737 6.24846Z" fill="white"/>
</g>
<defs>
<clipPath id="clip0_561_846">
<rect width="158" height="31" fill="white"/>
</clipPath>
</defs>
</svg>
